<?xml version="1.0" encoding="utf-8"?>
<!-- Uploaded to: SVG Repo, www.svgrepo.com, Generator: SVG Repo Mixer Tools -->
<svg width="800px" height="800px" viewBox="0 0 1024 1024" class="icon"  version="1.1" xmlns="http://www.w3.org/2000/svg"><path d="M810.24 299.52a32 32 0 0 0 29.76 20.48 32 32 0 0 0 11.52-2.24 32 32 0 0 0 18.24-41.28 384 384 0 0 0-61.44-104.64 32 32 0 0 0-49.28 40.64 320 320 0 0 1 51.2 87.04zM704 160a32 32 0 0 0 32-32 32 32 0 0 0-10.56-22.72A28.8 28.8 0 0 0 704 96a32 32 0 0 0-32 32 32 32 0 0 0 11.84 24A32 32 0 0 0 704 160zM288 416a224 224 0 1 0 224-224 224 224 0 0 0-224 224z m384 0a160 160 0 1 1-160-160 160 160 0 0 1 160 160z" fill="#231815" /><path d="M982.72 841.28l-177.6-177.6A382.08 382.08 0 0 0 896 416a32 32 0 0 0-64 0 320 320 0 0 1-139.52 264l-32 19.2a318.08 318.08 0 0 1-296.64 0l-32-19.2a320 320 0 0 1 267.2-571.84 32 32 0 1 0 17.28-61.44A384 384 0 0 0 219.2 663.68l-177.92 177.6A32 32 0 0 0 64 896h104.96l24.64 74.24a32 32 0 0 0 23.04 21.12L224 992a32 32 0 0 0 22.72-9.28l190.08-190.08a381.12 381.12 0 0 0 150.4 0l190.08 190.08A32 32 0 0 0 800 992h7.36a32 32 0 0 0 23.04-21.12l24.64-74.88H960a32 32 0 0 0 22.72-54.72zM364.48 774.4l-128 128-15.68-46.72A32 32 0 0 0 192 832H141.12l119.68-119.68 35.52 21.12a384 384 0 0 0 36.48 21.76zM832 832a32 32 0 0 0-30.4 21.76l-15.68 46.72-128-128 32-18.88a384 384 0 0 0 36.48-21.76l35.52-21.12L882.88 832z" fill="#231815" /></svg>