<?xml version="1.0" encoding="iso-8859-1"?>
<!-- Uploaded to: SVG Repo, www.svgrepo.com, Generator: SVG Repo Mixer Tools -->
<svg fill="#000000" height="800px" width="800px" version="1.1" id="Layer_1" xmlns="http://www.w3.org/2000/svg" xmlns:xlink="http://www.w3.org/1999/xlink" 
	 viewBox="0 0 512 512" xml:space="preserve">
<g>
	<g>
		<path d="M402.087,0C387.1,0,92.324,0,76.522,0c-9.22,0-16.696,7.475-16.696,16.696v478.609c0,9.22,7.475,16.696,16.696,16.696
			h325.565c27.618,0,50.087-22.469,50.087-50.087V50.087C452.174,22.469,429.705,0,402.087,0z M296.347,33.391h0.001H352v116.256
			l-16.021-16.02c-6.519-6.52-17.091-6.521-23.611,0l-16.021,16.02V33.391z M126.609,478.609H93.217V33.391h33.391V478.609z
			 M418.783,461.913c0,9.206-7.49,16.696-16.696,16.696H160V33.391h102.957v156.563c0,14.816,17.992,22.318,28.501,11.805
			l32.717-32.716l32.717,32.716c10.429,10.433,28.501,3.157,28.501-11.805V33.391h16.696c9.206,0,16.696,7.49,16.696,16.696V461.913
			z"/>
	</g>
</g>
<g>
	<g>
		<path d="M339.324,328.88h-99.866c-9.22,0-16.696,7.475-16.696,16.696s7.475,16.696,16.696,16.696h99.866
			c9.22,0,16.696-7.475,16.696-16.696S348.545,328.88,339.324,328.88z"/>
	</g>
</g>
<g>
	<g>
		<path d="M339.324,387.634h-99.866c-9.22,0-16.696,7.475-16.696,16.696c0,9.22,7.475,16.696,16.696,16.696h99.866
			c9.22,0,16.696-7.475,16.696-16.696C356.019,395.109,348.545,387.634,339.324,387.634z"/>
	</g>
</g>
</svg>